
<svg width="512" height="512" viewBox="0 0 512 512" xmlns="http://www.w3.org/2000/svg">
  <!-- Background circle -->
  <circle cx="256" cy="256" r="256" fill="#f0f0f0"/>

  <!-- Left side - stylized Union Jack -->
  <clipPath id="leftHalf">
    <rect x="0" y="0" width="256" height="512" />
  </clipPath>
  <g clip-path="url(#leftHalf)">
    <rect width="512" height="512" fill="#00247D"/>
    <polygon points="0,0 512,512 512,448 64,0" fill="#FFF"/>
    <polygon points="0,512 512,0 512,64 64,512" fill="#FFF"/>
    <polygon points="0,0 512,512 448,512 0,64" fill="#CF142B"/>
    <polygon points="0,512 512,0 448,0 0,448" fill="#CF142B"/>
    <rect x="200" width="112" height="512" fill="#FFF"/>
    <rect y="200" width="512" height="112" fill="#FFF"/>
    <rect x="224" width="64" height="512" fill="#CF142B"/>
    <rect y="224" width="512" height="64" fill="#CF142B"/>
  </g>

  <!-- Right side - stylized US flag -->
  <clipPath id="rightHalf">
    <rect x="256" y="0" width="256" height="512" />
  </clipPath>
  <g clip-path="url(#rightHalf)">
    <rect x="256" width="256" height="512" fill="#B22234"/>
    <!-- White stripes -->
    <g fill="#FFF">
      <rect x="256" y="40" width="256" height="40"/>
      <rect x="256" y="120" width="256" height="40"/>
      <rect x="256" y="200" width="256" height="40"/>
      <rect x="256" y="280" width="256" height="40"/>
      <rect x="256" y="360" width="256" height="40"/>
      <rect x="256" y="440" width="256" height="40"/>
    </g>
    <!-- Star field -->
    <rect x="256" y="0" width="153.6" height="280" fill="#3C3B6E"/>
    <!-- White stars -->
    <g fill="#FFF">
      <!-- 9 rows of stars -->
      <circle cx="264" cy="30" r="4" />
<circle cx="288" cy="30" r="4" />
<circle cx="312" cy="30" r="4" />
<circle cx="336" cy="30" r="4" />
<circle cx="360" cy="30" r="4" />
<circle cx="276" cy="70" r="4" />
<circle cx="300" cy="70" r="4" />
<circle cx="324" cy="70" r="4" />
<circle cx="348" cy="70" r="4" />
<circle cx="264" cy="110" r="4" />
<circle cx="288" cy="110" r="4" />
<circle cx="312" cy="110" r="4" />
<circle cx="336" cy="110" r="4" />
<circle cx="360" cy="110" r="4" />
<circle cx="276" cy="150" r="4" />
<circle cx="300" cy="150" r="4" />
<circle cx="324" cy="150" r="4" />
<circle cx="348" cy="150" r="4" />
<circle cx="264" cy="190" r="4" />
<circle cx="288" cy="190" r="4" />
<circle cx="312" cy="190" r="4" />
<circle cx="336" cy="190" r="4" />
<circle cx="360" cy="190" r="4" />
    </g>
  </g>
</svg>
